<?xml version="1.0" encoding="UTF-8"?>
<svg version="1.1" viewBox="0 0 31 32" xmlns="http://www.w3.org/2000/svg">
<title>logo</title>
<desc>Created with Sketch.</desc>
<g fill="none" fill-rule="evenodd">
<g transform="translate(-233 -197)" fill="#D8D8D8" fill-rule="nonzero">
<g transform="translate(233 197)">
<path d="m15.411 0.8c-5.7571 0-10.806 3.1111-13.463 7.8222-0.97429 1.8667-1.1514 3.4667-0.35429 4.8 0.88571 1.6 2.9229 1.7778 3.9857 1.7778h1.9486l-0.70857 2.2222c-0.44286 1.3333-0.26571 2.8444 0.44286 3.8222 0.70857 0.97778 1.7714 1.5111 3.1 1.5111 0.88571 0 1.86-0.17778 2.7457-0.53333-0.26571-0.35556-0.44286-0.71111-0.62-1.1556-0.088571-0.35556-0.26571-0.71111-0.26571-1.1556-0.53143 0.26667-1.1514 0.35556-1.7714 0.35556-0.35429 0-0.88571-0.088889-1.1514-0.53333-0.26571-0.35556-0.35429-0.88889-0.17714-1.5111l0.97429-3.0222h3.1l0.79714-2.5778h-3.0114l1.3286-4.1778h-2.6571l-1.3286 4.1778h-2.8343c-0.88571 0-1.4171-0.26667-1.6829-0.71111-0.26571-0.53333 0-1.6 0.70857-2.8444v-0.088889c2.3914-3.4667 6.2886-5.7778 10.806-5.7778 7.1743 0 13.02 5.8667 13.02 13.067 0 7.2-5.8457 13.067-13.02 13.067-6.3771 0-11.691-4.6222-12.843-10.667l-2.48 0.53333c1.4171 7.2 7.7057 12.711 15.323 12.711 8.5914 0 15.589-7.0222 15.589-15.644 0.088571-8.4444-6.9086-15.467-15.5-15.467z"/>
<path d="m25.331 20.711c-0.62 0-1.4171-0.088889-1.9486-0.44444-0.17714-0.17778-0.44286-0.35556-0.53143-0.8 0-0.17778 0-0.44444 0.088571-0.71111l1.9486-5.9556h-2.6571l-1.6829 5.1556c-0.44286 1.3333-1.86 2.4-3.1 2.4-0.35429 0-0.79714-0.088889-0.97429-0.44444-0.17714-0.26667-0.35429-0.62222-0.088571-1.2444l1.9486-5.9556h-2.6571l-1.6829 5.1556c-0.44286 1.2444-0.26571 2.5778 0.44286 3.5556 0.70857 0.88889 1.6829 1.4222 3.0114 1.4222 1.24 0 2.5686-0.53333 3.6314-1.4222 0.35429 0.53333 0.79714 0.88889 1.4171 1.1556 0.88571 0.26667 1.4171 0.26667 2.0371 0.26667 0.26571 0 0.62-0.088889 0.70857-0.088889 0.088572-0.088889 0.088572-0.17778 0.17714-0.26667 0.088571-0.17778 0.17714-0.35556 0.26571-0.53333 0.088571-0.17778 0.17714-0.35556 0.26571-0.53333 0.088571-0.17778 0.17714-0.35556 0.26571-0.53333 0.088571-0.088889 0.088571-0.26667 0.17714-0.35556-0.26571 0.17778-0.62 0.17778-1.0629 0.17778z"/>
</g>
</g>
</g>
</svg>
